<svg id="Camada_1" data-name="Camada 1" xmlns="http://www.w3.org/2000/svg" viewBox="0 0 695.72 156.67"><defs><style>.cls-1{fill:#e63529;}.cls-2{fill:#e42320;stroke:#e42320;stroke-miterlimit:10;}.cls-3{font-size:106.85px;fill:#1d1d1b;font-family:AmpleSoft-Bold, AmpleSoft;font-weight:700;}.cls-4{letter-spacing:-0.01em;}.cls-5{letter-spacing:-0.01em;}</style></defs><title>LOGO SCANCODE</title><rect x="77.99" y="37.02" width="3.32" height="84.29"/><rect x="88.25" y="37.02" width="3.32" height="84.29"/><rect x="103.64" y="37.02" width="3.32" height="84.29"/><rect x="108.78" y="37.02" width="3.32" height="84.29"/><rect x="129.3" y="37.02" width="3.32" height="84.29"/><rect x="62.6" y="37.02" width="3.32" height="84.29"/><rect x="99.46" y="37.02" width="1.42" height="84.29"/><rect x="73.81" y="37.02" width="1.42" height="84.29"/><rect x="43.02" y="37.02" width="1.42" height="84.29"/><rect x="53.28" y="37.02" width="1.42" height="84.29"/><rect x="119.98" y="37.02" width="1.42" height="84.29"/><rect x="125.11" y="37.02" width="1.42" height="84.29"/><rect x="56.76" y="37.02" width="4.74" height="84.29"/><path class="cls-1" d="M69.72,32.94H46.42a6.72,6.72,0,0,0-6.71,6.7V64.93h-23V39.64A29.68,29.68,0,0,1,46.4,10H69.72v23Z"/><path class="cls-1" d="M106.35,123.72h23.32a6.72,6.72,0,0,0,6.7-6.71V91.74h23V117a29.69,29.69,0,0,1-29.68,29.69H106.35Z"/><line class="cls-2" x1="16.72" y1="78" x2="159.35" y2="78"/><text class="cls-3" transform="translate(175.92 109.05)">S<tspan class="cls-4" x="56.73" y="0">C</tspan><tspan x="112.61" y="0">AN</tspan><tspan class="cls-5" x="256" y="0">C</tspan><tspan x="311.88" y="0">ODE</tspan></text></svg>